# xmcd
#
# Track frame offsets: 
#        150
#        9836
#        26429
#        46491
#        63712
#        75513
#        88487
#        101664
#        115656
#        127481
#        140890
#        160404
#
# Disc length: 2293 seconds
#
# Revision: 0
# Processed by: cddbd v1.5.2PL0 Copyright (c) Steve Scherf et al.
# Submitted via: ExactAudioCopy v1.0b3
#
DISCID=a808f30c
DTITLE=The Devin Cuddy Band - Volume One
DYEAR=2012
DGENRE=Bluegrass
TTITLE0=Dancin'
TTITLE1=She ain't crying over me
TTITLE2=Sidewalk in the south
TTITLE3=East coast bred
TTITLE4=Afghanistan
TTITLE5=I got a girl
TTITLE6=Ramblin' man
TTITLE7=Prelude
TTITLE8=My son's a queer
TTITLE9=Johnny from the mountain
TTITLE10=Signal Hill
TTITLE11=Walking
EXTD=
EXTT0=
EXTT1=
EXTT2=
EXTT3=
EXTT4=
EXTT5=
EXTT6=
EXTT7=
EXTT8=
EXTT9=
EXTT10=
EXTT11=
PLAYORDER=
